<svg width="169" height="74" viewBox="0 0 169 74" fill="none" xmlns="http://www.w3.org/2000/svg">
<path d="M20.744 3.052V28H15.524V19.324C15.524 16.828 15.752 14.368 16.208 11.944L12.752 21.664H8.576L5.12 11.944C5.576 14.176 5.804 16.636 5.804 19.324V28H0.62V3.052H6.164L10.664 15.796L15.164 3.052H20.744ZM28.3909 21.844V22.852C28.3909 23.668 28.8109 24.076 29.6509 24.076C30.3709 24.076 30.9709 23.944 31.4509 23.68V19.324L29.7949 19.756C29.1949 19.924 28.8109 20.14 28.6429 20.404C28.4749 20.668 28.3909 21.148 28.3909 21.844ZM24.1789 7.264C25.4989 6.808 27.3829 6.58 29.8309 6.58C32.2789 6.58 34.0309 7.12 35.0869 8.2C36.1429 9.256 36.6709 10.864 36.6709 13.024V28H31.5949V26.452C30.8989 27.532 29.6869 28.072 27.9589 28.072C26.2309 28.072 24.9829 27.664 24.2149 26.848C23.4469 26.008 23.0629 24.676 23.0629 22.852V21.628C23.0629 20.02 23.4109 18.784 24.1069 17.92C24.8269 17.056 25.9789 16.408 27.5629 15.976L31.4869 14.968V12.988C31.4629 12.364 31.2829 11.932 30.9469 11.692C30.6109 11.428 29.9989 11.296 29.1109 11.296C27.1189 11.296 25.4749 11.548 24.1789 12.052V7.264ZM46.9858 23.428C47.7298 23.428 48.4138 23.26 49.0378 22.924V27.748C48.2218 28.132 47.1538 28.324 45.8338 28.324C43.7938 28.324 42.3418 27.844 41.4778 26.884C40.6138 25.924 40.1818 24.532 40.1818 22.708V11.332H38.2738V6.76H40.4338L42.0898 3.088H45.6178V6.76H48.8218V11.332H45.6178V22.132C45.6178 22.996 46.0738 23.428 46.9858 23.428ZM50.8498 21.952V12.196C50.8498 10.372 51.4138 8.956 52.5418 7.948C53.6698 6.916 55.3738 6.4 57.6538 6.4C62.0458 6.4 64.2418 8.332 64.2418 12.196V19.504H56.0698V21.52C56.0698 22.24 56.2618 22.756 56.6458 23.068C57.0538 23.356 57.9298 23.5 59.2738 23.5C60.6418 23.5 62.1298 23.26 63.7378 22.78V27.532C62.0578 27.988 60.2578 28.216 58.3378 28.216C53.3458 28.216 50.8498 26.128 50.8498 21.952ZM56.0698 15.364H59.2378V12.268C59.2378 11.356 58.7098 10.9 57.6538 10.9C56.5978 10.9 56.0698 11.356 56.0698 12.268V15.364ZM79.2049 7.876C80.7649 7.06 82.2889 6.652 83.7769 6.652C85.2889 6.652 86.4529 7.036 87.2689 7.804C88.1089 8.548 88.5289 9.676 88.5289 11.188V28H83.0209V12.52C83.0209 11.944 82.6969 11.656 82.0489 11.656C81.4249 11.656 80.8489 11.812 80.3209 12.124C80.3449 12.172 80.3569 12.292 80.3569 12.484V28H74.8489V12.52C74.8489 11.944 74.5369 11.656 73.9129 11.656C73.2889 11.656 72.7129 11.812 72.1849 12.124V28H66.7489V6.76H71.8609V7.696C73.1329 7 74.4649 6.652 75.8569 6.652C77.2729 6.652 78.3889 7.06 79.2049 7.876ZM95.9964 21.844V22.852C95.9964 23.668 96.4164 24.076 97.2564 24.076C97.9764 24.076 98.5764 23.944 99.0564 23.68V19.324L97.4004 19.756C96.8004 19.924 96.4164 20.14 96.2484 20.404C96.0804 20.668 95.9964 21.148 95.9964 21.844ZM91.7844 7.264C93.1044 6.808 94.9884 6.58 97.4364 6.58C99.8844 6.58 101.636 7.12 102.692 8.2C103.748 9.256 104.276 10.864 104.276 13.024V28H99.2004V26.452C98.5044 27.532 97.2924 28.072 95.5644 28.072C93.8364 28.072 92.5884 27.664 91.8204 26.848C91.0524 26.008 90.6684 24.676 90.6684 22.852V21.628C90.6684 20.02 91.0164 18.784 91.7124 17.92C92.4324 17.056 93.5844 16.408 95.1684 15.976L99.0924 14.968V12.988C99.0684 12.364 98.8884 11.932 98.5524 11.692C98.2164 11.428 97.6044 11.296 96.7164 11.296C94.7244 11.296 93.0804 11.548 91.7844 12.052V7.264ZM114.591 23.428C115.335 23.428 116.019 23.26 116.643 22.924V27.748C115.827 28.132 114.759 28.324 113.439 28.324C111.399 28.324 109.947 27.844 109.083 26.884C108.219 25.924 107.787 24.532 107.787 22.708V11.332H105.879V6.76H108.039L109.695 3.088H113.223V6.76H116.427V11.332H113.223V22.132C113.223 22.996 113.679 23.428 114.591 23.428ZM121.515 6.148C119.523 6.148 118.527 5.212 118.527 3.34C118.527 1.444 119.523 0.495998 121.515 0.495998C123.531 0.495998 124.539 1.444 124.539 3.34C124.539 5.212 123.531 6.148 121.515 6.148ZM118.815 7.336H124.251V28H118.815V7.336ZM132.755 28H127.499V1.108H132.755V15.58L135.419 6.76H140.783L137.723 16.804L141.323 28H135.635L132.755 17.56V28ZM20.744 43.052V68H15.524V59.324C15.524 56.828 15.752 54.368 16.208 51.944L12.752 61.664H8.576L5.12 51.944C5.576 54.176 5.804 56.636 5.804 59.324V68H0.62V43.052H6.164L10.664 55.796L15.164 43.052H20.744ZM32.1349 46.76H37.5709V68H32.4589V67.028C31.2829 67.676 29.9389 68 28.4269 68C26.9389 68 25.7989 67.592 25.0069 66.776C24.2149 65.96 23.8189 64.784 23.8189 63.248V46.76H29.3269V62.168C29.3269 62.792 29.6749 63.104 30.3709 63.104C31.0669 63.104 31.6549 62.96 32.1349 62.672V46.76ZM35.8789 43.196C35.8789 44.492 35.1829 45.14 33.7909 45.14C32.3989 45.14 31.7029 44.492 31.7029 43.196C31.7029 41.876 32.3989 41.216 33.7909 41.216C35.1829 41.216 35.8789 41.876 35.8789 43.196ZM29.7229 43.196C29.7229 44.492 29.0269 45.14 27.6349 45.14C26.2429 45.14 25.5469 44.492 25.5469 43.196C25.5469 41.876 26.2429 41.216 27.6349 41.216C29.0269 41.216 29.7229 41.876 29.7229 43.196ZM40.8036 41.108H46.2396V47.12C47.1996 46.784 48.2196 46.616 49.2996 46.616C52.7076 46.616 54.4116 48.14 54.4116 51.188V68H48.9036V52.52C48.9036 51.944 48.5556 51.656 47.8596 51.656C47.1876 51.656 46.6476 51.776 46.2396 52.016V68H40.8036V41.108ZM57.1077 61.952V52.196C57.1077 50.372 57.6717 48.956 58.7997 47.948C59.9277 46.916 61.6317 46.4 63.9117 46.4C68.3037 46.4 70.4997 48.332 70.4997 52.196V59.504H62.3277V61.52C62.3277 62.24 62.5197 62.756 62.9037 63.068C63.3117 63.356 64.1877 63.5 65.5317 63.5C66.8997 63.5 68.3877 63.26 69.9957 62.78V67.532C68.3157 67.988 66.5157 68.216 64.5957 68.216C59.6037 68.216 57.1077 66.128 57.1077 61.952ZM62.3277 55.364H65.4957V52.268C65.4957 51.356 64.9677 50.9 63.9117 50.9C62.8557 50.9 62.3277 51.356 62.3277 52.268V55.364ZM78.1187 47.696C79.3907 47 80.7107 46.652 82.0787 46.652C83.4467 46.652 84.5387 47.036 85.3547 47.804C86.1947 48.548 86.6147 49.676 86.6147 51.188V68H81.1067V52.52C81.1067 51.944 80.7947 51.656 80.1707 51.656C79.5467 51.656 78.9707 51.812 78.4427 52.124V68H73.0067V46.76H78.1187V47.696ZM97.6268 51.584H96.4388C95.3108 51.584 94.7468 52.184 94.7468 53.384V62.276C94.7468 62.9 95.1068 63.212 95.8268 63.212C96.5468 63.212 97.1468 63.068 97.6268 62.78V51.584ZM97.5908 41.108H103.063V68H97.7708V66.488C96.9068 67.592 95.6708 68.144 94.0628 68.144C92.4788 68.144 91.2908 67.712 90.4988 66.848C89.7068 65.984 89.3108 64.784 89.3108 63.248V53.204C89.3108 51.188 89.8628 49.616 90.9668 48.488C92.0708 47.336 93.7508 46.76 96.0068 46.76H97.5908V41.108ZM109 46.148C107.008 46.148 106.012 45.212 106.012 43.34C106.012 41.444 107.008 40.496 109 40.496C111.016 40.496 112.024 41.444 112.024 43.34C112.024 45.212 111.016 46.148 109 46.148ZM106.3 47.336H111.736V68H106.3V47.336ZM114.155 52.376C114.155 50.456 114.731 49.016 115.883 48.056C117.059 47.072 118.943 46.58 121.535 46.58C123.311 46.58 124.775 46.76 125.927 47.12V51.908C124.847 51.548 123.659 51.368 122.363 51.368C121.091 51.368 120.275 51.476 119.915 51.692C119.579 51.908 119.411 52.256 119.411 52.736V53.024C119.411 53.312 119.495 53.564 119.663 53.78C119.855 53.972 120.251 54.272 120.851 54.68L123.767 56.624C124.679 57.224 125.375 57.884 125.855 58.604C126.359 59.324 126.611 60.224 126.611 61.304V62.204C126.611 66.188 123.995 68.18 118.763 68.18C116.939 68.18 115.379 68.024 114.083 67.712V62.852C115.211 63.188 116.459 63.356 117.827 63.356C119.195 63.356 120.095 63.248 120.527 63.032C120.983 62.792 121.211 62.444 121.211 61.988V61.664C121.211 61.304 121.091 61.016 120.851 60.8C120.563 60.512 119.183 59.552 116.711 57.92C115.007 56.768 114.155 55.232 114.155 53.312V52.376ZM128.94 41.108H134.376V68H128.94V41.108ZM140.324 46.148C138.332 46.148 137.336 45.212 137.336 43.34C137.336 41.444 138.332 40.496 140.324 40.496C142.34 40.496 143.348 41.444 143.348 43.34C143.348 45.212 142.34 46.148 140.324 46.148ZM137.624 47.336H143.06V68H137.624V47.336ZM160.924 49.1H159.664C159.472 49.1 159.208 49.124 158.872 49.172C159.328 49.94 159.556 50.9 159.556 52.052V55.148C159.556 56.924 159.004 58.304 157.9 59.288C156.796 60.272 155.128 60.788 152.896 60.836C152.272 60.836 151.96 61.1 151.96 61.628C151.96 61.94 152.056 62.156 152.248 62.276C152.464 62.372 152.848 62.42 153.4 62.42H155.38C157.228 62.42 158.596 62.792 159.484 63.536C160.396 64.256 160.852 65.396 160.852 66.956V67.856C160.852 69.608 160.216 70.964 158.944 71.924C157.672 72.908 155.776 73.4 153.256 73.4H151.924C150.388 73.4 149.032 73.232 147.856 72.896C146.68 72.584 145.804 72.224 145.228 71.816V66.884C145.9 67.412 146.836 67.868 148.036 68.252C149.236 68.66 150.484 68.864 151.78 68.864H152.536C153.784 68.864 154.636 68.768 155.092 68.576C155.572 68.408 155.812 68.12 155.812 67.712V67.532C155.812 67.052 155.404 66.812 154.588 66.812H152.392C150.664 66.812 149.368 66.56 148.504 66.056C147.64 65.552 147.208 64.736 147.208 63.608V63.032C147.208 61.52 147.88 60.644 149.224 60.404C146.752 59.588 145.516 57.836 145.516 55.148V52.052C145.516 50.252 146.092 48.86 147.244 47.876C148.42 46.892 150.184 46.4 152.536 46.4C154.096 46.4 155.404 46.616 156.46 47.048C157.012 45.2 158.308 44.276 160.348 44.276H160.924V49.1ZM154.156 55.112V52.088C154.156 51.152 153.616 50.684 152.536 50.684C151.456 50.684 150.916 51.152 150.916 52.088V55.112C150.916 56.048 151.456 56.516 152.536 56.516C153.616 56.516 154.156 56.048 154.156 55.112ZM153.904 41.108H156.676C156.676 42.356 156.268 43.364 155.452 44.132C154.636 44.876 153.604 45.248 152.356 45.248C151.108 45.248 150.076 44.864 149.26 44.096C148.444 43.328 148.036 42.332 148.036 41.108H150.808C150.808 41.612 150.94 42.02 151.204 42.332C151.468 42.644 151.852 42.8 152.356 42.8C152.86 42.8 153.244 42.644 153.508 42.332C153.772 42.02 153.904 41.612 153.904 41.108ZM165.425 46.148C163.433 46.148 162.437 45.212 162.437 43.34C162.437 41.444 163.433 40.496 165.425 40.496C167.441 40.496 168.449 41.444 168.449 43.34C168.449 45.212 167.441 46.148 165.425 46.148ZM162.725 47.336H168.161V68H162.725V47.336Z" fill="#DAF0F2"/>
</svg>
